# xmcd
# 
# Track frame offsets:
#     150
#     15440
#     29550
#     45577
#     61360
#     76960
#     94485
#     113920
#     128557
#     143242
#     158957
#     174655
#     192075
#     206367
#     225667
#     240845
#     263230
#     280397
#     299937
#     319835
# 
# Disc length: 4510
# 
# Revision: 8
# Processed by: cddbd v1.5.2PL0 Copyright (c) Steve Scherf et al.
# Submitted via: fre:ac v1.1beta1pre3
# 
DISCID=20119c14
DTITLE=Reba McEntire - Moments and Memories (  The Best Of Reba ) ( Canadian )
DYEAR=1998
DGENRE=Country
TTITLE0=Whoever's In New England
TTITLE1=Little Rock
TTITLE2=Somebody Should Leave
TTITLE3=What Am I Gonna Do Without You
TTITLE4=One Promise To Late
TTITLE5=Is There Life Out There
TTITLE6=For My Broken Heart
TTITLE7=Walk On
TTITLE8=The Greatest Man I Never Knew
TTITLE9=Why Haven't I Heard From You
TTITLE10=And Still
TTITLE11=The Heart Is A Lonely Hunter
TTITLE12=It's Your Call
TTITLE13=The Night The Lights Went Out In Georgia
TTITLE14=The Heart Won't Lie Featuring Vince Gill
TTITLE15=Fancy
TTITLE16=Rumor Has It
TTITLE17=Does He Love You Featuring Linda Davis
TTITLE18=Misty Blue
TTITLE19=Sweet Dreams
EXTD=YEAR: 1998
EXTT0=
EXTT1=
EXTT2=
EXTT3=
EXTT4=
EXTT5=
EXTT6=
EXTT7=
EXTT8=
EXTT9=
EXTT10=
EXTT11=
EXTT12=
EXTT13=
EXTT14=
EXTT15=
EXTT16=
EXTT17=
EXTT18=
EXTT19=
PLAYORDER=
